<?xml version="1.0" encoding="utf-8"?>
<!-- Generator: Adobe Illustrator 26.2.1, SVG Export Plug-In . SVG Version: 6.00 Build 0)  -->
<svg version="1.1"
	 id="svg13020" inkscape:version="0.92.5 (2060ec1f9f, 2020-04-08)" sodipodi:docname="PreenhubBadge1.svg" xmlns:cc="http://creativecommons.org/ns#" xmlns:dc="http://purl.org/dc/elements/1.1/" xmlns:inkscape="http://www.inkscape.org/namespaces/inkscape" xmlns:rdf="http://www.w3.org/1999/02/22-rdf-syntax-ns#" xmlns:sodipodi="http://sodipodi.sourceforge.net/DTD/sodipodi-0.dtd" xmlns:svg="http://www.w3.org/2000/svg"
	 xmlns="http://www.w3.org/2000/svg" xmlns:xlink="http://www.w3.org/1999/xlink" x="0px" y="0px" viewBox="0 0 429.6 429.6"
	 style="enable-background:new 0 0 429.6 429.6;" xml:space="preserve">
<style type="text/css">
	.st0{fill:#FEE4F5;}
	.st1{opacity:0.5;}
	.st2{fill:#E0A6C4;}
	.st3{fill:#F79817;}
	.st4{fill:url(#SVGID_1_);}
</style>
<rect x="72.3" y="0" class="st0" width="307.3" height="429.6"/>
<g id="g12974" transform="translate(337.39919,146.39085)" inkscape:export-xdpi="113" inkscape:export-ydpi="113" class="st1">
	<path class="st2" d="M30.6-98.3c-11.3-6.8-26.3-4.5-42.2,2.3c-15.9,6.8-33.2,18.3-50,32C-85-44.9-107-22-122.3-1.8
		c11.9-29.9,31.4-57.5,40.9-82.3c4.4-11.4,6-20.6,5.1-28c-0.9-7.4-4.9-13.2-10.7-15.7s-12.9-1.9-20.3,0.8
		c-7.5,2.7-15.5,7.6-23.7,14.7c-8.1,7-16.5,15.5-24.6,25.3v0c-24.3,29.4-46.4,70.4-52,115.4c-3.1,25.2-4.9,59.8-12.7,97.3
		c-7.6,37-37.4,118.1-37.4,118.1c15.9-18.3,38-79.7,45.7-117.9c7.7-37.7,9.4-72.1,12.4-96.5c7.1-57.3,43-109.1,73.8-135.6
		c7.6-6.5,15-10.9,21.2-13.2c6.2-2.3,11.2-2.3,14.4-1c3.1,1.3,5.1,3.8,5.8,9.2c0.7,5.4-0.5,13.5-4.6,24.1
		c-5.8,15-16.2,31.9-26.1,50.5c-9.9,18.4-18.5,43.4-22.2,65.3c12.7-18,22.7-28.4,36.3-43.7c13-14.6,28.6-29.8,44.7-42.9
		c16.4-13.3,33.3-24.5,48-30.8c14.8-6.3,27-7.5,34.8-2.8c3.1,1.9,4.1,4.3,3.5,9.1s-3.3,11.6-7.8,19.1C13-48-3.5-29.4-23-12.3
		c-43.1,38-70.4,81.1-70.4,81.1l-7.1,11.2l12.1-5.2c33.9-14.6,63.3-18.6,84.1-16.5c10.4,1.1,18.7,3.6,24.4,7s8.4,7.1,9,10.8
		c0.5,3.1-0.5,6-3.7,9.5c-3.2,3.6-8.5,7.4-15.3,11.2c-13.7,7.6-33.7,15.2-55.6,23C-90,135.7-121,156.4-121,156.4l-12.2,8.1l14.6-0.6
		c16.6-0.8,27.4,2.5,32.4,7.4c2.5,2.4,3.8,5.2,3.9,8.8s-0.8,8-3.4,13.2c-6,12.1-23.1,25.1-45.7,35.7c-22.6,10.6-76.9,27.2-94,31.2
		c24.2,0.9,74-12.8,97.5-23.8c23.5-11,41.9-24.2,49.5-39.5c3-6.1,4.5-11.9,4.2-17.3c-0.3-5.4-2.5-10.4-6.3-14.2
		c-5.4-5.3-13.6-8.2-24-9.3c11.5-6.9,30.9-17.7,61.6-28.7c22-7.9,42.1-15.5,56.7-23.5c7.3-4,13.3-8.2,17.5-12.9
		c4.2-4.7,6.6-10.4,5.7-16.3C36,68,31.2,62.3,24.2,58.2c-7-4.1-16.3-6.9-27.6-8c-19.9-2-46.1,1.6-75.8,12.6
		C-68.8,48.1-47.4,20-17.6-6.2C2.3-23.7,19.2-42.6,29.1-58.9c4.9-8.1,8.2-15.6,9-22.4S36.5-94.8,30.6-98.3z"/>
	<path class="st2" d="M-126.2,76.2c-10.8,0.7-23.2,7.9-36,21.3c1.8-5.2,3.5-9.7,5.4-15.8c6.4-21.2,12.4-45.5,7.5-61.6
		c-2.3-7.5-7.9-12.3-14.4-12.9c-6.5-0.6-13.2,2.3-19.6,7.1c-3.2,2.4-6.4,5.4-9.4,8.8h0c-9,10.3-15.6,24.8-18.6,42.1l7,1.5
		c3.6-20.9,15.1-37.7,25.9-45.9c5.4-4.1,10.6-5.8,14-5.5s5.7,1.8,7.3,7.1c3.5,11.8-1.2,36.2-7.5,56.9c-6.3,20.7-15.3,45.5-15.3,45.5
		c24.7-31.2,43.8-39.7,54.3-40.4c5.2-0.3,8.5,1.3,10.9,5.2c2.4,3.9,3.5,10.6,2.1,20c-2.9,18.5-17.1,37.8-30.9,52.1
		c-13.8,14.4-26.8,23.8-26.8,23.8l-9.6,7l11.9,0.4c8.5,0.3,13.7,2.9,16.6,6.5c2.9,3.6,3.9,8.5,2.7,14.2c-2.4,11.4-14.4,28.9-35,35.6
		l2.9,4.4c22.9-7.5,37-23.2,40.1-38.4c1.6-7.6,0.3-15.2-4.4-21c-3.1-3.7-7.6-6.4-13.1-8c5.3-4.3,12.3-10.4,20.5-18.9
		c14.3-14.9,29.7-34.9,33.1-56.5c1.7-10.7,0.6-19.3-3.2-25.6C-111.7,79-118.6,75.7-126.2,76.2z"/>
</g>
<path class="st3" d="M429.6,18.3C429.6,18.3,429.6,18.3,429.6,18.3l0,393c0,0,0,0,0,0V18.3z"/>
<linearGradient id="SVGID_1_" gradientUnits="userSpaceOnUse" x1="214.7834" y1="429.5669" x2="214.7834" y2="-3.051758e-05">
	<stop  offset="0" style="stop-color:#BC638D"/>
	<stop  offset="1" style="stop-color:#DEA2C1"/>
</linearGradient>
<path class="st4" d="M379.6,0H411c0,0,0,0,0,0H18.6c0,0,0,0,0,0H50C22.4,0,0,22.4,0,50V18.3c0,0,0,0,0,0v393c0,0,0,0,0,0v-31.7
	c0,27.6,22.4,50,50,50H18.6c0,0,0,0,0,0H411c0,0,0,0,0,0h-31.4c27.6,0,50-22.4,50-50V50C429.6,22.4,407.2,0,379.6,0z M375.5,65.1
	c-0.8,6.8-4,14.3-9,22.4c-9.9,16.3-26.8,35.1-46.7,52.7c-29.7,26.2-51.2,54.2-61.6,68.9c29.7-11,56-14.6,75.8-12.6
	c11.3,1.1,20.6,3.9,27.6,8c7,4.1,11.8,9.8,12.9,16.6c0.9,5.9-1.5,11.6-5.7,16.3c-4.2,4.7-10.2,8.8-17.5,12.9
	c-14.6,8.1-34.8,15.7-56.7,23.5c-30.7,11-50.1,21.9-61.6,28.7c10.4,1.1,18.6,4,24,9.3c3.8,3.8,6,8.8,6.3,14.2
	c0.3,5.4-1.2,11.2-4.2,17.3c-7.6,15.3-26.1,28.5-49.5,39.5c-23,10.8-71.2,24.1-95.9,23.8c-0.2,0-0.4,0-0.6,0.1
	c-19.9,1.6-32.5-3.6-33.5-16.5c0,0,29.8-81.1,37.4-118.1c7.7-37.5,9.5-72.1,12.7-97.3c5.6-45,27.7-86,52-115.4
	c8.1-9.8,16.5-18.4,24.6-25.3c8.2-7,16.3-12,23.7-14.7c4.2-1.5,8.3-2.4,12.1-2.4h0h0h0h0c2.9,0,5.7,0.5,8.3,1.6
	c5.8,2.5,9.8,8.3,10.7,15.7c0.9,7.4-0.7,16.7-5.1,28c-9.5,24.8-29,52.4-40.9,82.3c15.3-20.3,37.3-43.2,60.8-62.3
	c16.8-13.6,34.1-25.2,50-32c15.9-6.8,30.8-9.1,42.2-2.3C373.9,51.6,376.2,58.3,375.5,65.1z"/>
<polygon class="st3" points="242.1,17 242.1,17 242.1,17 "/>
</svg>
